STARTFONT 2.1
COMMENT
FONT Nimbus14
SIZE 14 78 78
FONTBOUNDINGBOX 14 14 0 -3
STARTPROPERTIES 5
DEFAULT_CHAR 0
POINT_SIZE 360
FONT_DESCENT 3
FONT_ASCENT 11
COPYRIGHT "Public domain font.  Share and enjoy."
ENDPROPERTIES
CHARS 224

STARTCHAR  
ENCODING 32
SWIDTH 1440 0
DWIDTH 4 0
BBX 0 0 0 -3
BITMAP
ENDCHAR
STARTCHAR !
ENCODING 33
SWIDTH 1440 0
DWIDTH 4 0
BBX 2 9 1 0
BITMAP
C0
C0
C0
C0
C0
C0
00
C0
C0
ENDCHAR
STARTCHAR "
ENCODING 34
SWIDTH 1800 0
DWIDTH 5 0
BBX 3 3 1 6
BITMAP
A0
A0
A0
ENDCHAR
STARTCHAR #
ENCODING 35
SWIDTH 3600 0
DWIDTH 10 0
BBX 8 8 1 1
BITMAP
12
12
7F
24
24
FE
48
48
ENDCHAR
STARTCHAR $
ENCODING 36
SWIDTH 2520 0
DWIDTH 7 0
BBX 5 11 1 -1
BITMAP
20
70
A8
E0
E0
70
38
38
A8
70
20
ENDCHAR
STARTCHAR %
ENCODING 37
SWIDTH 3960 0
DWIDTH 11 0
BBX 9 10 1 0
BITMAP
6E00
9200
9400
6400
0800
0800
1300
1480
2480
2300
ENDCHAR
STARTCHAR &
ENCODING 38
SWIDTH 3240 0
DWIDTH 9 0
BBX 7 9 1 0
BITMAP
78
CC
CC
60
CE
CC
CC
CC
78
ENDCHAR
STARTCHAR '
ENCODING 39
SWIDTH 1080 0
DWIDTH 3 0
BBX 1 3 1 6
BITMAP
80
80
80
ENDCHAR
STARTCHAR (
ENCODING 40
SWIDTH 1800 0
DWIDTH 5 0
BBX 3 11 1 -1
BITMAP
20
40
C0
C0
C0
C0
C0
C0
C0
40
20
ENDCHAR
STARTCHAR )
ENCODING 41
SWIDTH 1800 0
DWIDTH 5 0
BBX 3 11 1 -1
BITMAP
80
40
60
60
60
60
60
60
60
40
80
ENDCHAR
STARTCHAR *
ENCODING 42
SWIDTH 2520 0
DWIDTH 7 0
BBX 5 5 1 2
BITMAP
20
A8
70
A8
20
ENDCHAR
STARTCHAR +
ENCODING 43
SWIDTH 2520 0
DWIDTH 7 0
BBX 5 5 1 2
BITMAP
20
20
F8
20
20
ENDCHAR
STARTCHAR ,
ENCODING 44
SWIDTH 1440 0
DWIDTH 4 0
BBX 0 0 0 -3
BITMAP
ENDCHAR
STARTCHAR -
ENCODING 45
SWIDTH 2520 0
DWIDTH 7 0
BBX 5 1 1 4
BITMAP
F8
ENDCHAR
STARTCHAR .
ENCODING 46
SWIDTH 1440 0
DWIDTH 4 0
BBX 2 2 1 0
BITMAP
C0
C0
ENDCHAR
STARTCHAR /
ENCODING 47
SWIDTH 2520 0
DWIDTH 7 0
BBX 5 10 1 0
BITMAP
08
18
18
30
30
60
60
C0
C0
80
ENDCHAR
STARTCHAR 0
ENCODING 48
SWIDTH 2880 0
DWIDTH 8 0
BBX 6 9 1 0
BITMAP
78
CC
CC
CC
CC
CC
CC
CC
78
ENDCHAR
STARTCHAR 1
ENCODING 49
SWIDTH 2880 0
DWIDTH 8 0
BBX 4 9 2 0
BITMAP
30
70
B0
30
30
30
30
30
30
ENDCHAR
STARTCHAR 2
ENCODING 50
SWIDTH 2880 0
DWIDTH 8 0
BBX 6 9 1 0
BITMAP
78
8C
0C
0C
18
30
60
C0
FC
ENDCHAR
STARTCHAR 3
ENCODING 51
SWIDTH 2880 0
DWIDTH 8 0
BBX 6 9 1 0
BITMAP
FC
18
30
78
0C
0C
0C
8C
78
ENDCHAR
STARTCHAR 4
ENCODING 52
SWIDTH 2880 0
DWIDTH 8 0
BBX 6 9 1 0
BITMAP
18
38
58
98
98
FC
18
18
18
ENDCHAR
STARTCHAR 5
ENCODING 53
SWIDTH 2880 0
DWIDTH 8 0
BBX 6 9 1 0
BITMAP
FC
C0
C0
F8
0C
0C
0C
8C
78
ENDCHAR
STARTCHAR 6
ENCODING 54
SWIDTH 2880 0
DWIDTH 8 0
BBX 6 9 1 0
BITMAP
38
60
C0
F8
CC
CC
CC
CC
78
ENDCHAR
STARTCHAR 7
ENCODING 55
SWIDTH 2880 0
DWIDTH 8 0
BBX 6 9 1 0
BITMAP
FC
0C
0C
0C
18
30
30
30
30
ENDCHAR
STARTCHAR 8
ENCODING 56
SWIDTH 2880 0
DWIDTH 8 0
BBX 6 9 1 0
BITMAP
78
CC
CC
CC
78
CC
CC
CC
78
ENDCHAR
STARTCHAR 9
ENCODING 57
SWIDTH 2880 0
DWIDTH 8 0
BBX 6 9 1 0
BITMAP
78
CC
CC
CC
CC
7C
0C
18
70
ENDCHAR
STARTCHAR :
ENCODING 58
SWIDTH 1440 0
DWIDTH 4 0
BBX 2 7 1 0
BITMAP
C0
C0
00
00
00
C0
C0
ENDCHAR
STARTCHAR ;
ENCODING 59
SWIDTH 1440 0
DWIDTH 4 0
BBX 2 9 1 -2
BITMAP
C0
C0
00
00
00
C0
C0
40
80
ENDCHAR
STARTCHAR <
ENCODING 60
SWIDTH 2520 0
DWIDTH 7 0
BBX 5 7 1 1
BITMAP
18
30
60
C0
60
30
18
ENDCHAR
STARTCHAR =
ENCODING 61
SWIDTH 2520 0
DWIDTH 7 0
BBX 5 3 1 3
BITMAP
F8
00
F8
ENDCHAR
STARTCHAR >
ENCODING 62
SWIDTH 2520 0
DWIDTH 7 0
BBX 5 7 1 1
BITMAP
C0
60
30
18
30
60
C0
ENDCHAR
STARTCHAR ?
ENCODING 63
SWIDTH 2880 0
DWIDTH 8 0
BBX 6 9 1 0
BITMAP
78
8C
0C
18
30
30
00
30
30
ENDCHAR
STARTCHAR @
ENCODING 64
SWIDTH 3960 0
DWIDTH 11 0
BBX 9 9 1 0
BITMAP
3E00
4100
9C80
A480
A480
A480
9B00
4000
3E00
ENDCHAR
STARTCHAR A
ENCODING 65
SWIDTH 2880 0
DWIDTH 8 0
BBX 6 9 1 0
BITMAP
78
CC
CC
CC
CC
FC
CC
CC
CC
ENDCHAR
STARTCHAR B
ENCODING 66
SWIDTH 2880 0
DWIDTH 8 0
BBX 6 9 1 0
BITMAP
F8
CC
CC
CC
F8
CC
CC
CC
F8
ENDCHAR
STARTCHAR C
ENCODING 67
SWIDTH 2880 0
DWIDTH 8 0
BBX 6 9 1 0
BITMAP
78
C4
C0
C0
C0
C0
C0
C4
78
ENDCHAR
STARTCHAR D
ENCODING 68
SWIDTH 2880 0
DWIDTH 8 0
BBX 6 9 1 0
BITMAP
F8
CC
CC
CC
CC
CC
CC
CC
F8
ENDCHAR
STARTCHAR E
ENCODING 69
SWIDTH 2520 0
DWIDTH 7 0
BBX 5 9 1 0
BITMAP
F8
C0
C0
C0
F0
C0
C0
C0
F8
ENDCHAR
STARTCHAR F
ENCODING 70
SWIDTH 2520 0
DWIDTH 7 0
BBX 5 9 1 0
BITMAP
F8
C0
C0
C0
F0
C0
C0
C0
C0
ENDCHAR
STARTCHAR G
ENCODING 71
SWIDTH 2880 0
DWIDTH 8 0
BBX 6 9 1 0
BITMAP
78
C4
C0
C0
DC
CC
CC
CC
7C
ENDCHAR
STARTCHAR H
ENCODING 72
SWIDTH 2880 0
DWIDTH 8 0
BBX 6 9 1 0
BITMAP
CC
CC
CC
CC
FC
CC
CC
CC
CC
ENDCHAR
STARTCHAR I
ENCODING 73
SWIDTH 1440 0
DWIDTH 4 0
BBX 2 9 1 0
BITMAP
C0
C0
C0
C0
C0
C0
C0
C0
C0
ENDCHAR
STARTCHAR J
ENCODING 74
SWIDTH 2880 0
DWIDTH 8 0
BBX 6 9 1 0
BITMAP
0C
0C
0C
0C
0C
0C
CC
CC
78
ENDCHAR
STARTCHAR K
ENCODING 75
SWIDTH 3240 0
DWIDTH 9 0
BBX 7 9 1 0
BITMAP
C6
CC
D8
F0
E0
F0
D8
CC
C6
ENDCHAR
STARTCHAR L
ENCODING 76
SWIDTH 2520 0
DWIDTH 7 0
BBX 5 9 1 0
BITMAP
C0
C0
C0
C0
C0
C0
C0
C0
F8
ENDCHAR
STARTCHAR M
ENCODING 77
SWIDTH 4320 0
DWIDTH 12 0
BBX 10 9 1 0
BITMAP
8040
C0C0
E1C0
F3C0
BEC0
9CC0
88C0
80C0
80C0
ENDCHAR
STARTCHAR N
ENCODING 78
SWIDTH 3240 0
DWIDTH 9 0
BBX 7 9 1 0
BITMAP
82
C2
E2
F2
BA
9E
8E
86
82
ENDCHAR
STARTCHAR O
ENCODING 79
SWIDTH 2880 0
DWIDTH 8 0
BBX 6 9 1 0
BITMAP
78
CC
CC
CC
CC
CC
CC
CC
78
ENDCHAR
STARTCHAR P
ENCODING 80
SWIDTH 2880 0
DWIDTH 8 0
BBX 6 9 1 0
BITMAP
F8
CC
CC
CC
F8
C0
C0
C0
C0
ENDCHAR
STARTCHAR Q
ENCODING 81
SWIDTH 2880 0
DWIDTH 8 0
BBX 6 10 1 -1
BITMAP
78
CC
CC
CC
CC
CC
CC
CC
78
0C
ENDCHAR
STARTCHAR R
ENCODING 82
SWIDTH 2880 0
DWIDTH 8 0
BBX 6 9 1 0
BITMAP
F8
CC
CC
CC
F8
CC
CC
CC
CC
ENDCHAR
STARTCHAR S
ENCODING 83
SWIDTH 2520 0
DWIDTH 7 0
BBX 5 9 1 0
BITMAP
70
C8
C0
E0
70
38
18
98
70
ENDCHAR
STARTCHAR T
ENCODING 84
SWIDTH 2160 0
DWIDTH 6 0
BBX 6 9 0 0
BITMAP
FC
30
30
30
30
30
30
30
30
ENDCHAR
STARTCHAR U
ENCODING 85
SWIDTH 2880 0
DWIDTH 8 0
BBX 6 9 1 0
BITMAP
CC
CC
CC
CC
CC
CC
CC
CC
78
ENDCHAR
STARTCHAR V
ENCODING 86
SWIDTH 2880 0
DWIDTH 8 0
BBX 6 9 1 0
BITMAP
CC
CC
CC
CC
CC
CC
CC
C8
F0
ENDCHAR
STARTCHAR W
ENCODING 87
SWIDTH 4320 0
DWIDTH 12 0
BBX 10 9 1 0
BITMAP
CCC0
CCC0
CCC0
CCC0
CCC0
CCC0
CCC0
CCC0
FF80
ENDCHAR
STARTCHAR X
ENCODING 88
SWIDTH 2880 0
DWIDTH 8 0
BBX 6 9 1 0
BITMAP
CC
CC
CC
CC
78
CC
CC
CC
CC
ENDCHAR
STARTCHAR Y
ENCODING 89
SWIDTH 2880 0
DWIDTH 8 0
BBX 6 9 1 0
BITMAP
CC
CC
CC
CC
78
30
30
30
30
ENDCHAR
STARTCHAR Z
ENCODING 90
SWIDTH 2880 0
DWIDTH 8 0
BBX 6 9 1 0
BITMAP
FC
0C
0C
18
30
60
C0
C0
FC
ENDCHAR
STARTCHAR [
ENCODING 91
SWIDTH 1800 0
DWIDTH 5 0
BBX 3 11 1 -1
BITMAP
E0
C0
C0
C0
C0
C0
C0
C0
C0
C0
E0
ENDCHAR
STARTCHAR \
ENCODING 92
SWIDTH 2520 0
DWIDTH 7 0
BBX 5 10 1 0
BITMAP
80
80
40
40
20
20
10
10
08
08
ENDCHAR
STARTCHAR ]
ENCODING 93
SWIDTH 1800 0
DWIDTH 5 0
BBX 3 11 1 -1
BITMAP
E0
60
60
60
60
60
60
60
60
60
E0
ENDCHAR
STARTCHAR ^
ENCODING 94
SWIDTH 2520 0
DWIDTH 7 0
BBX 5 3 1 6
BITMAP
20
50
88
ENDCHAR
STARTCHAR _
ENCODING 95
SWIDTH 2880 0
DWIDTH 8 0
BBX 8 1 0 -1
BITMAP
FF
ENDCHAR
STARTCHAR `
ENCODING 96
SWIDTH 1800 0
DWIDTH 5 0
BBX 3 2 1 8
BITMAP
C0
60
ENDCHAR
STARTCHAR a
ENCODING 97
SWIDTH 2880 0
DWIDTH 8 0
BBX 6 7 1 0
BITMAP
78
8C
7C
CC
CC
CC
7C
ENDCHAR
STARTCHAR b
ENCODING 98
SWIDTH 2880 0
DWIDTH 8 0
BBX 6 9 1 0
BITMAP
C0
C0
F8
CC
CC
CC
CC
CC
F8
ENDCHAR
STARTCHAR c
ENCODING 99
SWIDTH 2880 0
DWIDTH 8 0
BBX 6 7 1 0
BITMAP
78
C4
C0
C0
C0
C4
78
ENDCHAR
STARTCHAR d
ENCODING 100
SWIDTH 2880 0
DWIDTH 8 0
BBX 6 9 1 0
BITMAP
0C
0C
7C
CC
CC
CC
CC
CC
7C
ENDCHAR
STARTCHAR e
ENCODING 101
SWIDTH 2880 0
DWIDTH 8 0
BBX 6 7 1 0
BITMAP
78
CC
CC
FC
C0
C4
78
ENDCHAR
STARTCHAR f
ENCODING 102
SWIDTH 1800 0
DWIDTH 5 0
BBX 5 9 0 0
BITMAP
38
60
F0
60
60
60
60
60
60
ENDCHAR
STARTCHAR g
ENCODING 103
SWIDTH 2880 0
DWIDTH 8 0
BBX 6 10 1 -3
BITMAP
7C
CC
CC
CC
CC
CC
7C
0C
8C
78
ENDCHAR
STARTCHAR h
ENCODING 104
SWIDTH 2880 0
DWIDTH 8 0
BBX 6 9 1 0
BITMAP
C0
C0
F8
CC
CC
CC
CC
CC
CC
ENDCHAR
STARTCHAR i
ENCODING 105
SWIDTH 1440 0
DWIDTH 4 0
BBX 2 9 1 0
BITMAP
C0
00
C0
C0
C0
C0
C0
C0
C0
ENDCHAR
STARTCHAR j
ENCODING 106
SWIDTH 1800 0
DWIDTH 5 0
BBX 4 12 0 -3
BITMAP
30
00
30
30
30
30
30
30
30
30
30
E0
ENDCHAR
STARTCHAR k
ENCODING 107
SWIDTH 2520 0
DWIDTH 7 0
BBX 6 9 1 0
BITMAP
C0
C0
CC
D8
F0
E0
F0
D8
CC
ENDCHAR
STARTCHAR l
ENCODING 108
SWIDTH 1440 0
DWIDTH 4 0
BBX 2 9 1 0
BITMAP
C0
C0
C0
C0
C0
C0
C0
C0
C0
ENDCHAR
STARTCHAR m
ENCODING 109
SWIDTH 4320 0
DWIDTH 12 0
BBX 10 7 1 0
BITMAP
FF80
CCC0
CCC0
CCC0
CCC0
CCC0
CCC0
ENDCHAR
STARTCHAR n
ENCODING 110
SWIDTH 2880 0
DWIDTH 8 0
BBX 6 7 1 0
BITMAP
F8
CC
CC
CC
CC
CC
CC
ENDCHAR
STARTCHAR o
ENCODING 111
SWIDTH 2880 0
DWIDTH 8 0
BBX 6 7 1 0
BITMAP
78
CC
CC
CC
CC
CC
78
ENDCHAR
STARTCHAR p
ENCODING 112
SWIDTH 2880 0
DWIDTH 8 0
BBX 6 9 1 -2
BITMAP
F8
CC
CC
CC
CC
CC
F8
C0
C0
ENDCHAR
STARTCHAR q
ENCODING 113
SWIDTH 2880 0
DWIDTH 8 0
BBX 6 9 1 -2
BITMAP
7C
CC
CC
CC
CC
CC
7C
0C
0C
ENDCHAR
STARTCHAR r
ENCODING 114
SWIDTH 2160 0
DWIDTH 6 0
BBX 5 7 1 0
BITMAP
D8
E0
C0
C0
C0
C0
C0
ENDCHAR
STARTCHAR s
ENCODING 115
SWIDTH 2520 0
DWIDTH 7 0
BBX 5 7 1 0
BITMAP
70
C8
E0
70
38
98
70
ENDCHAR
STARTCHAR t
ENCODING 116
SWIDTH 1440 0
DWIDTH 4 0
BBX 4 9 0 0
BITMAP
60
60
F0
60
60
60
60
60
30
ENDCHAR
STARTCHAR u
ENCODING 117
SWIDTH 2880 0
DWIDTH 8 0
BBX 6 7 1 0
BITMAP
CC
CC
CC
CC
CC
CC
7C
ENDCHAR
STARTCHAR v
ENCODING 118
SWIDTH 2880 0
DWIDTH 8 0
BBX 6 7 1 0
BITMAP
CC
CC
CC
CC
CC
C8
F0
ENDCHAR
STARTCHAR w
ENCODING 119
SWIDTH 4320 0
DWIDTH 12 0
BBX 10 7 1 0
BITMAP
CCC0
CCC0
CCC0
CCC0
CCC0
CCC0
FF80
ENDCHAR
STARTCHAR x
ENCODING 120
SWIDTH 2880 0
DWIDTH 8 0
BBX 6 7 1 0
BITMAP
CC
CC
CC
78
CC
CC
CC
ENDCHAR
STARTCHAR y
ENCODING 121
SWIDTH 2880 0
DWIDTH 8 0
BBX 6 10 1 -3
BITMAP
CC
CC
CC
CC
CC
CC
7C
0C
8C
78
ENDCHAR
STARTCHAR z
ENCODING 122
SWIDTH 2880 0
DWIDTH 8 0
BBX 6 7 1 0
BITMAP
FC
0C
18
30
60
C0
FC
ENDCHAR
STARTCHAR {
ENCODING 123
SWIDTH 1800 0
DWIDTH 5 0
BBX 3 11 1 -1
BITMAP
20
40
40
40
40
80
40
40
40
40
20
ENDCHAR
STARTCHAR |
ENCODING 124
SWIDTH 1080 0
DWIDTH 3 0
BBX 1 11 1 -1
BITMAP
80
80
80
80
80
80
80
80
80
80
80
ENDCHAR
STARTCHAR }
ENCODING 125
SWIDTH 1800 0
DWIDTH 5 0
BBX 3 11 1 -1
BITMAP
80
40
40
40
40
20
40
40
40
40
80
ENDCHAR
STARTCHAR ~
ENCODING 126
SWIDTH 2880 0
DWIDTH 8 0
BBX 6 2 1 6
BITMAP
64
98
ENDCHAR
STARTCHAR 
ENCODING 127
SWIDTH 1440 0
DWIDTH 4 0
BBX 0 0 0 -3
BITMAP
ENDCHAR
STARTCHAR Ä
ENCODING 128
SWIDTH 1440 0
DWIDTH 4 0
BBX 0 0 0 -3
BITMAP
ENDCHAR
STARTCHAR Å
ENCODING 129
SWIDTH 1440 0
DWIDTH 4 0
BBX 0 0 0 -3
BITMAP
ENDCHAR
STARTCHAR Ç
ENCODING 130
SWIDTH 1440 0
DWIDTH 4 0
BBX 0 0 0 -3
BITMAP
ENDCHAR
STARTCHAR É
ENCODING 131
SWIDTH 1440 0
DWIDTH 4 0
BBX 0 0 0 -3
BITMAP
ENDCHAR
STARTCHAR Ñ
ENCODING 132
SWIDTH 1440 0
DWIDTH 4 0
BBX 0 0 0 -3
BITMAP
ENDCHAR
STARTCHAR Ö
ENCODING 133
SWIDTH 1440 0
DWIDTH 4 0
BBX 0 0 0 -3
BITMAP
ENDCHAR
STARTCHAR Ü
ENCODING 134
SWIDTH 1440 0
DWIDTH 4 0
BBX 0 0 0 -3
BITMAP
ENDCHAR
STARTCHAR á
ENCODING 135
SWIDTH 1440 0
DWIDTH 4 0
BBX 0 0 0 -3
BITMAP
ENDCHAR
STARTCHAR à
ENCODING 136
SWIDTH 1440 0
DWIDTH 4 0
BBX 0 0 0 -3
BITMAP
ENDCHAR
STARTCHAR â
ENCODING 137
SWIDTH 1440 0
DWIDTH 4 0
BBX 0 0 0 -3
BITMAP
ENDCHAR
STARTCHAR ä
ENCODING 138
SWIDTH 1440 0
DWIDTH 4 0
BBX 0 0 0 -3
BITMAP
ENDCHAR
STARTCHAR ã
ENCODING 139
SWIDTH 1440 0
DWIDTH 4 0
BBX 0 0 0 -3
BITMAP
ENDCHAR
STARTCHAR å
ENCODING 140
SWIDTH 1440 0
DWIDTH 4 0
BBX 0 0 0 -3
BITMAP
ENDCHAR
STARTCHAR ç
ENCODING 141
SWIDTH 1440 0
DWIDTH 4 0
BBX 0 0 0 -3
BITMAP
ENDCHAR
STARTCHAR é
ENCODING 142
SWIDTH 1440 0
DWIDTH 4 0
BBX 0 0 0 -3
BITMAP
ENDCHAR
STARTCHAR è
ENCODING 143
SWIDTH 1440 0
DWIDTH 4 0
BBX 0 0 0 -3
BITMAP
ENDCHAR
STARTCHAR ê
ENCODING 144
SWIDTH 1440 0
DWIDTH 4 0
BBX 0 0 0 -3
BITMAP
ENDCHAR
STARTCHAR ë
ENCODING 145
SWIDTH 1440 0
DWIDTH 4 0
BBX 0 0 0 -3
BITMAP
ENDCHAR
STARTCHAR í
ENCODING 146
SWIDTH 1440 0
DWIDTH 4 0
BBX 0 0 0 -3
BITMAP
ENDCHAR
STARTCHAR ì
ENCODING 147
SWIDTH 1440 0
DWIDTH 4 0
BBX 0 0 0 -3
BITMAP
ENDCHAR
STARTCHAR î
ENCODING 148
SWIDTH 1440 0
DWIDTH 4 0
BBX 0 0 0 -3
BITMAP
ENDCHAR
STARTCHAR ï
ENCODING 149
SWIDTH 1440 0
DWIDTH 4 0
BBX 0 0 0 -3
BITMAP
ENDCHAR
STARTCHAR ñ
ENCODING 150
SWIDTH 1440 0
DWIDTH 4 0
BBX 0 0 0 -3
BITMAP
ENDCHAR
STARTCHAR ó
ENCODING 151
SWIDTH 1440 0
DWIDTH 4 0
BBX 0 0 0 -3
BITMAP
ENDCHAR
STARTCHAR ò
ENCODING 152
SWIDTH 1440 0
DWIDTH 4 0
BBX 0 0 0 -3
BITMAP
ENDCHAR
STARTCHAR ô
ENCODING 153
SWIDTH 1440 0
DWIDTH 4 0
BBX 0 0 0 -3
BITMAP
ENDCHAR
STARTCHAR ö
ENCODING 154
SWIDTH 1440 0
DWIDTH 4 0
BBX 0 0 0 -3
BITMAP
ENDCHAR
STARTCHAR õ
ENCODING 155
SWIDTH 1440 0
DWIDTH 4 0
BBX 0 0 0 -3
BITMAP
ENDCHAR
STARTCHAR ú
ENCODING 156
SWIDTH 1440 0
DWIDTH 4 0
BBX 0 0 0 -3
BITMAP
ENDCHAR
STARTCHAR ù
ENCODING 157
SWIDTH 1440 0
DWIDTH 4 0
BBX 0 0 0 -3
BITMAP
ENDCHAR
STARTCHAR û
ENCODING 158
SWIDTH 1440 0
DWIDTH 4 0
BBX 0 0 0 -3
BITMAP
ENDCHAR
STARTCHAR ü
ENCODING 159
SWIDTH 1440 0
DWIDTH 4 0
BBX 0 0 0 -3
BITMAP
ENDCHAR
STARTCHAR †
ENCODING 160
SWIDTH 1440 0
DWIDTH 4 0
BBX 0 0 0 -3
BITMAP
ENDCHAR
STARTCHAR °
ENCODING 161
SWIDTH 1440 0
DWIDTH 4 0
BBX 2 9 1 0
BITMAP
C0
C0
00
C0
C0
C0
C0
C0
C0
ENDCHAR
STARTCHAR ¢
ENCODING 162
SWIDTH 2880 0
DWIDTH 8 0
BBX 6 11 1 -2
BITMAP
10
10
78
D4
D0
D0
D0
D4
78
10
10
ENDCHAR
STARTCHAR £
ENCODING 163
SWIDTH 3600 0
DWIDTH 10 0
BBX 8 9 1 0
BITMAP
3C
66
60
30
7C
30
30
73
DE
ENDCHAR
STARTCHAR §
ENCODING 164
SWIDTH 3240 0
DWIDTH 9 0
BBX 7 9 1 0
BITMAP
3C
62
60
F8
60
F0
60
62
3C
ENDCHAR
STARTCHAR •
ENCODING 165
SWIDTH 2880 0
DWIDTH 8 0
BBX 6 9 1 0
BITMAP
CC
CC
CC
78
FC
30
FC
30
30
ENDCHAR
STARTCHAR ¶
ENCODING 166
SWIDTH 1080 0
DWIDTH 3 0
BBX 1 11 1 -1
BITMAP
80
80
80
80
00
00
80
80
80
80
80
ENDCHAR
STARTCHAR ß
ENCODING 167
SWIDTH 2880 0
DWIDTH 8 0
BBX 6 12 1 -3
BITMAP
78
CC
C0
70
D8
CC
CC
6C
38
0C
CC
78
ENDCHAR
STARTCHAR ®
ENCODING 168
SWIDTH 2160 0
DWIDTH 6 0
BBX 4 1 1 9
BITMAP
90
ENDCHAR
STARTCHAR ©
ENCODING 169
SWIDTH 4320 0
DWIDTH 12 0
BBX 10 12 1 -1
BITMAP
1E00
2100
4080
9E40
B340
B040
B040
B340
9E40
4080
2100
1E00
ENDCHAR
STARTCHAR ™
ENCODING 170
SWIDTH 2160 0
DWIDTH 6 0
BBX 4 7 1 2
BITMAP
E0
10
70
90
70
00
F0
ENDCHAR
STARTCHAR ´
ENCODING 171
SWIDTH 3240 0
DWIDTH 9 0
BBX 7 7 1 1
BITMAP
12
24
48
90
48
24
12
ENDCHAR
STARTCHAR ¨
ENCODING 172
SWIDTH 2880 0
DWIDTH 8 0
BBX 6 4 1 2
BITMAP
FC
04
04
04
ENDCHAR
STARTCHAR ≠
ENCODING 173
SWIDTH 2520 0
DWIDTH 7 0
BBX 5 1 1 4
BITMAP
F8
ENDCHAR
STARTCHAR Æ
ENCODING 174
SWIDTH 4320 0
DWIDTH 12 0
BBX 10 12 1 -1
BITMAP
1E00
2100
4080
BE40
B340
B340
BE40
B640
B340
4080
2100
1E00
ENDCHAR
STARTCHAR Ø
ENCODING 175
SWIDTH 2880 0
DWIDTH 8 0
BBX 8 1 0 10
BITMAP
FF
ENDCHAR
STARTCHAR ∞
ENCODING 176
SWIDTH 2160 0
DWIDTH 6 0
BBX 4 4 1 5
BITMAP
60
90
90
60
ENDCHAR
STARTCHAR ±
ENCODING 177
SWIDTH 2520 0
DWIDTH 7 0
BBX 5 7 1 0
BITMAP
20
20
F8
20
20
00
F8
ENDCHAR
STARTCHAR ≤
ENCODING 178
SWIDTH 2160 0
DWIDTH 6 0
BBX 4 5 1 4
BITMAP
60
90
20
40
F0
ENDCHAR
STARTCHAR ≥
ENCODING 179
SWIDTH 2160 0
DWIDTH 6 0
BBX 4 5 1 4
BITMAP
F0
20
70
10
E0
ENDCHAR
STARTCHAR ¥
ENCODING 180
SWIDTH 1800 0
DWIDTH 5 0
BBX 3 2 1 8
BITMAP
60
C0
ENDCHAR
STARTCHAR µ
ENCODING 181
SWIDTH 2880 0
DWIDTH 8 0
BBX 6 9 1 -2
BITMAP
CC
CC
CC
CC
CC
CC
F4
C0
C0
ENDCHAR
STARTCHAR ∂
ENCODING 182
SWIDTH 3960 0
DWIDTH 11 0
BBX 9 11 1 -2
BITMAP
7F80
F300
F300
F300
7300
3300
3300
3300
3300
3300
3300
ENDCHAR
STARTCHAR ∑
ENCODING 183
SWIDTH 1440 0
DWIDTH 4 0
BBX 2 2 1 3
BITMAP
C0
C0
ENDCHAR
STARTCHAR ∏
ENCODING 184
SWIDTH 1800 0
DWIDTH 5 0
BBX 3 3 1 -2
BITMAP
40
20
C0
ENDCHAR
STARTCHAR π
ENCODING 185
SWIDTH 1440 0
DWIDTH 4 0
BBX 2 5 1 4
BITMAP
40
C0
40
40
40
ENDCHAR
STARTCHAR ∫
ENCODING 186
SWIDTH 2160 0
DWIDTH 6 0
BBX 4 7 1 2
BITMAP
60
90
90
90
60
00
F0
ENDCHAR
STARTCHAR ª
ENCODING 187
SWIDTH 3240 0
DWIDTH 9 0
BBX 7 7 1 1
BITMAP
90
48
24
12
24
48
90
ENDCHAR
STARTCHAR º
ENCODING 188
SWIDTH 3600 0
DWIDTH 10 0
BBX 8 11 1 -2
BITMAP
42
C2
44
48
48
10
22
26
4A
8F
82
ENDCHAR
STARTCHAR Ω
ENCODING 189
SWIDTH 3600 0
DWIDTH 10 0
BBX 8 11 1 -2
BITMAP
42
C2
44
48
48
10
26
29
42
84
8F
ENDCHAR
STARTCHAR æ
ENCODING 190
SWIDTH 3960 0
DWIDTH 11 0
BBX 9 11 1 -2
BITMAP
F100
2100
6200
1400
E400
0800
1100
1300
2500
4780
4100
ENDCHAR
STARTCHAR ø
ENCODING 191
SWIDTH 2880 0
DWIDTH 8 0
BBX 6 9 1 0
BITMAP
30
30
00
30
30
60
C0
C4
78
ENDCHAR
STARTCHAR ¿
ENCODING 192
SWIDTH 2880 0
DWIDTH 8 0
BBX 6 11 1 0
BITMAP
60
30
00
78
CC
CC
CC
FC
CC
CC
CC
ENDCHAR
STARTCHAR ¡
ENCODING 193
SWIDTH 2880 0
DWIDTH 8 0
BBX 6 11 1 0
BITMAP
18
30
00
78
CC
CC
CC
FC
CC
CC
CC
ENDCHAR
STARTCHAR ¬
ENCODING 194
SWIDTH 2880 0
DWIDTH 8 0
BBX 6 11 1 0
BITMAP
30
48
00
78
CC
CC
CC
FC
CC
CC
CC
ENDCHAR
STARTCHAR √
ENCODING 195
SWIDTH 2880 0
DWIDTH 8 0
BBX 6 11 1 0
BITMAP
64
98
00
78
CC
CC
CC
FC
CC
CC
CC
ENDCHAR
STARTCHAR ƒ
ENCODING 196
SWIDTH 2880 0
DWIDTH 8 0
BBX 6 11 1 0
BITMAP
48
00
78
CC
CC
CC
CC
FC
CC
CC
CC
ENDCHAR
STARTCHAR ≈
ENCODING 197
SWIDTH 2880 0
DWIDTH 8 0
BBX 6 11 1 0
BITMAP
30
48
30
78
CC
CC
CC
FC
CC
CC
CC
ENDCHAR
STARTCHAR ∆
ENCODING 198
SWIDTH 3960 0
DWIDTH 11 0
BBX 9 9 1 0
BITMAP
7F80
CC00
CC00
CC00
CF00
FC00
CC00
CC00
CF80
ENDCHAR
STARTCHAR «
ENCODING 199
SWIDTH 2880 0
DWIDTH 8 0
BBX 6 11 1 -2
BITMAP
78
C4
C0
C0
C0
C0
C0
C4
78
10
60
ENDCHAR
STARTCHAR »
ENCODING 200
SWIDTH 2520 0
DWIDTH 7 0
BBX 5 11 1 0
BITMAP
60
30
00
F8
C0
C0
F0
C0
C0
C0
F8
ENDCHAR
STARTCHAR …
ENCODING 201
SWIDTH 2520 0
DWIDTH 7 0
BBX 5 11 1 0
BITMAP
30
60
00
F8
C0
C0
F0
C0
C0
C0
F8
ENDCHAR
STARTCHAR  
ENCODING 202
SWIDTH 2520 0
DWIDTH 7 0
BBX 5 11 1 0
BITMAP
60
90
00
F8
C0
C0
F0
C0
C0
C0
F8
ENDCHAR
STARTCHAR À
ENCODING 203
SWIDTH 2520 0
DWIDTH 7 0
BBX 5 11 1 0
BITMAP
90
00
F8
C0
C0
C0
F0
C0
C0
C0
F8
ENDCHAR
STARTCHAR Ã
ENCODING 204
SWIDTH 1800 0
DWIDTH 5 0
BBX 3 11 1 0
BITMAP
C0
60
00
60
60
60
60
60
60
60
60
ENDCHAR
STARTCHAR Õ
ENCODING 205
SWIDTH 1800 0
DWIDTH 5 0
BBX 3 11 1 0
BITMAP
60
C0
00
C0
C0
C0
C0
C0
C0
C0
C0
ENDCHAR
STARTCHAR Œ
ENCODING 206
SWIDTH 2160 0
DWIDTH 6 0
BBX 4 11 1 0
BITMAP
60
90
00
60
60
60
60
60
60
60
60
ENDCHAR
STARTCHAR œ
ENCODING 207
SWIDTH 2160 0
DWIDTH 6 0
BBX 4 11 1 0
BITMAP
90
00
60
60
60
60
60
60
60
60
60
ENDCHAR
STARTCHAR –
ENCODING 208
SWIDTH 3240 0
DWIDTH 9 0
BBX 7 9 1 0
BITMAP
7C
66
66
66
F6
66
66
66
7C
ENDCHAR
STARTCHAR —
ENCODING 209
SWIDTH 3240 0
DWIDTH 9 0
BBX 7 11 1 0
BITMAP
32
4C
00
C2
E2
F2
BA
9E
8E
86
82
ENDCHAR
STARTCHAR “
ENCODING 210
SWIDTH 2880 0
DWIDTH 8 0
BBX 6 11 1 0
BITMAP
60
30
00
78
CC
CC
CC
CC
CC
CC
78
ENDCHAR
STARTCHAR ”
ENCODING 211
SWIDTH 2880 0
DWIDTH 8 0
BBX 6 11 1 0
BITMAP
18
30
00
78
CC
CC
CC
CC
CC
CC
78
ENDCHAR
STARTCHAR ‘
ENCODING 212
SWIDTH 2880 0
DWIDTH 8 0
BBX 6 11 1 0
BITMAP
30
48
00
78
CC
CC
CC
CC
CC
CC
78
ENDCHAR
STARTCHAR ’
ENCODING 213
SWIDTH 2880 0
DWIDTH 8 0
BBX 6 11 1 0
BITMAP
64
98
00
78
CC
CC
CC
CC
CC
CC
78
ENDCHAR
STARTCHAR ÷
ENCODING 214
SWIDTH 2880 0
DWIDTH 8 0
BBX 6 11 1 0
BITMAP
48
00
78
CC
CC
CC
CC
CC
CC
CC
78
ENDCHAR
STARTCHAR ◊
ENCODING 215
SWIDTH 2520 0
DWIDTH 7 0
BBX 5 5 1 2
BITMAP
88
50
20
50
88
ENDCHAR
STARTCHAR ÿ
ENCODING 216
SWIDTH 2880 0
DWIDTH 8 0
BBX 6 12 1 -2
BITMAP
04
08
78
CC
DC
DC
EC
EC
CC
78
40
80
ENDCHAR
STARTCHAR Ÿ
ENCODING 217
SWIDTH 2880 0
DWIDTH 8 0
BBX 6 11 1 0
BITMAP
60
30
00
CC
CC
CC
CC
CC
CC
CC
78
ENDCHAR
STARTCHAR ⁄
ENCODING 218
SWIDTH 2880 0
DWIDTH 8 0
BBX 6 11 1 0
BITMAP
18
30
00
CC
CC
CC
CC
CC
CC
CC
78
ENDCHAR
STARTCHAR €
ENCODING 219
SWIDTH 2880 0
DWIDTH 8 0
BBX 6 11 1 0
BITMAP
30
48
00
CC
CC
CC
CC
CC
CC
CC
78
ENDCHAR
STARTCHAR ‹
ENCODING 220
SWIDTH 2880 0
DWIDTH 8 0
BBX 6 11 1 0
BITMAP
48
00
CC
CC
CC
CC
CC
CC
CC
CC
78
ENDCHAR
STARTCHAR ›
ENCODING 221
SWIDTH 2880 0
DWIDTH 8 0
BBX 6 11 1 0
BITMAP
18
30
00
CC
CC
CC
78
30
30
30
30
ENDCHAR
STARTCHAR ﬁ
ENCODING 222
SWIDTH 2880 0
DWIDTH 8 0
BBX 6 9 1 0
BITMAP
C0
C0
F8
CC
CC
CC
F8
C0
C0
ENDCHAR
STARTCHAR ﬂ
ENCODING 223
SWIDTH 2880 0
DWIDTH 8 0
BBX 6 11 1 -2
BITMAP
78
CC
CC
CC
D8
CC
CC
CC
D8
C0
C0
ENDCHAR
STARTCHAR ‡
ENCODING 224
SWIDTH 2880 0
DWIDTH 8 0
BBX 6 10 1 0
BITMAP
60
30
00
78
8C
7C
CC
CC
CC
7C
ENDCHAR
STARTCHAR ·
ENCODING 225
SWIDTH 2880 0
DWIDTH 8 0
BBX 6 10 1 0
BITMAP
18
30
00
78
8C
7C
CC
CC
CC
7C
ENDCHAR
STARTCHAR ‚
ENCODING 226
SWIDTH 2880 0
DWIDTH 8 0
BBX 6 10 1 0
BITMAP
30
48
00
78
8C
7C
CC
CC
CC
7C
ENDCHAR
STARTCHAR „
ENCODING 227
SWIDTH 2880 0
DWIDTH 8 0
BBX 6 10 1 0
BITMAP
64
98
00
78
8C
7C
CC
CC
CC
7C
ENDCHAR
STARTCHAR ‰
ENCODING 228
SWIDTH 2880 0
DWIDTH 8 0
BBX 6 9 1 0
BITMAP
48
00
78
8C
7C
CC
CC
CC
7C
ENDCHAR
STARTCHAR Â
ENCODING 229
SWIDTH 2880 0
DWIDTH 8 0
BBX 6 10 1 0
BITMAP
30
48
30
78
8C
7C
CC
CC
CC
7C
ENDCHAR
STARTCHAR Ê
ENCODING 230
SWIDTH 4320 0
DWIDTH 12 0
BBX 10 7 1 0
BITMAP
7B80
8CC0
7CC0
CFC0
CC00
CC40
7780
ENDCHAR
STARTCHAR Á
ENCODING 231
SWIDTH 2880 0
DWIDTH 8 0
BBX 6 9 1 -2
BITMAP
78
C4
C0
C0
C0
C4
78
10
60
ENDCHAR
STARTCHAR Ë
ENCODING 232
SWIDTH 2880 0
DWIDTH 8 0
BBX 6 10 1 0
BITMAP
60
30
00
78
CC
CC
FC
C0
C4
78
ENDCHAR
STARTCHAR È
ENCODING 233
SWIDTH 2880 0
DWIDTH 8 0
BBX 6 10 1 0
BITMAP
18
30
00
78
CC
CC
FC
C0
C4
78
ENDCHAR
STARTCHAR Í
ENCODING 234
SWIDTH 2880 0
DWIDTH 8 0
BBX 6 10 1 0
BITMAP
30
48
00
78
CC
CC
FC
C0
C4
78
ENDCHAR
STARTCHAR Î
ENCODING 235
SWIDTH 2880 0
DWIDTH 8 0
BBX 6 9 1 0
BITMAP
48
00
78
CC
CC
FC
C0
C4
78
ENDCHAR
STARTCHAR Ï
ENCODING 236
SWIDTH 1800 0
DWIDTH 5 0
BBX 3 10 1 0
BITMAP
C0
60
00
60
60
60
60
60
60
60
ENDCHAR
STARTCHAR Ì
ENCODING 237
SWIDTH 1800 0
DWIDTH 5 0
BBX 3 10 1 0
BITMAP
60
C0
00
C0
C0
C0
C0
C0
C0
C0
ENDCHAR
STARTCHAR Ó
ENCODING 238
SWIDTH 2160 0
DWIDTH 6 0
BBX 4 10 1 0
BITMAP
60
90
00
60
60
60
60
60
60
60
ENDCHAR
STARTCHAR Ô
ENCODING 239
SWIDTH 2160 0
DWIDTH 6 0
BBX 4 9 1 0
BITMAP
90
00
60
60
60
60
60
60
60
ENDCHAR
STARTCHAR 
ENCODING 240
SWIDTH 2880 0
DWIDTH 8 0
BBX 6 10 1 0
BITMAP
68
30
58
0C
7C
CC
CC
CC
CC
78
ENDCHAR
STARTCHAR Ò
ENCODING 241
SWIDTH 2880 0
DWIDTH 8 0
BBX 6 10 1 0
BITMAP
64
98
00
F8
CC
CC
CC
CC
CC
CC
ENDCHAR
STARTCHAR Ú
ENCODING 242
SWIDTH 2880 0
DWIDTH 8 0
BBX 6 10 1 0
BITMAP
60
30
00
78
CC
CC
CC
CC
CC
78
ENDCHAR
STARTCHAR Û
ENCODING 243
SWIDTH 2880 0
DWIDTH 8 0
BBX 6 10 1 0
BITMAP
18
30
00
78
CC
CC
CC
CC
CC
78
ENDCHAR
STARTCHAR Ù
ENCODING 244
SWIDTH 2880 0
DWIDTH 8 0
BBX 6 10 1 0
BITMAP
30
48
00
78
CC
CC
CC
CC
CC
78
ENDCHAR
STARTCHAR ı
ENCODING 245
SWIDTH 2880 0
DWIDTH 8 0
BBX 6 10 1 0
BITMAP
64
98
00
78
CC
CC
CC
CC
CC
78
ENDCHAR
STARTCHAR ˆ
ENCODING 246
SWIDTH 2880 0
DWIDTH 8 0
BBX 6 9 1 0
BITMAP
48
00
78
CC
CC
CC
CC
CC
78
ENDCHAR
STARTCHAR ˜
ENCODING 247
SWIDTH 2880 0
DWIDTH 8 0
BBX 6 7 1 0
BITMAP
30
30
00
FC
00
30
30
ENDCHAR
STARTCHAR ¯
ENCODING 248
SWIDTH 2880 0
DWIDTH 8 0
BBX 6 11 1 -2
BITMAP
04
08
78
CC
DC
FC
EC
CC
78
40
80
ENDCHAR
STARTCHAR ˘
ENCODING 249
SWIDTH 2880 0
DWIDTH 8 0
BBX 6 10 1 0
BITMAP
60
30
00
CC
CC
CC
CC
CC
CC
7C
ENDCHAR
STARTCHAR ˙
ENCODING 250
SWIDTH 2880 0
DWIDTH 8 0
BBX 6 10 1 0
BITMAP
18
30
00
CC
CC
CC
CC
CC
CC
7C
ENDCHAR
STARTCHAR ˚
ENCODING 251
SWIDTH 2880 0
DWIDTH 8 0
BBX 6 10 1 0
BITMAP
30
48
00
CC
CC
CC
CC
CC
CC
7C
ENDCHAR
STARTCHAR ¸
ENCODING 252
SWIDTH 2880 0
DWIDTH 8 0
BBX 6 9 1 0
BITMAP
48
00
CC
CC
CC
CC
CC
CC
7C
ENDCHAR
STARTCHAR ˝
ENCODING 253
SWIDTH 2880 0
DWIDTH 8 0
BBX 6 13 1 -3
BITMAP
18
30
00
CC
CC
CC
CC
CC
CC
7C
0C
8C
78
ENDCHAR
STARTCHAR ˛
ENCODING 254
SWIDTH 2880 0
DWIDTH 8 0
BBX 6 11 1 -2
BITMAP
C0
C0
F8
CC
CC
CC
CC
CC
F8
C0
C0
ENDCHAR
STARTCHAR ˇ
ENCODING 255
SWIDTH 2880 0
DWIDTH 8 0
BBX 6 12 1 -3
BITMAP
48
00
CC
CC
CC
CC
CC
CC
7C
0C
8C
78
ENDCHAR
ENDFONT
